<?xml version="1.0" encoding="utf-8"?>
<!DOCTYPE svg PUBLIC "-//W3C//DTD SVG 1.1//EN" "http://www.w3.org/Graphics/SVG/1.1/DTD/svg11.dtd">
<svg xmlns="http://www.w3.org/2000/svg" xmlns:xlink="http://www.w3.org/1999/xlink" version="1.1" width="240" height="280">
  <defs>
    <g id="cid_1" viewBox="-176 -180 166 241">
      <path d="M 85 -159 L 20 -178 Q -54 -188 -99 -149 L -136 -133 Q -109 19 -84 85 -36 216 42 201 117 187 123 25 L 114 -133 Q 108 -152 85 -159" fill="#feffbd"/>
      <path d="M 86 28 Q 89 146 47 158 3 171 -42 58 -77 -29 -97 -140 -104 -180 -143 -173 -182 -166 -175 -126 -150 17 -107 110 -40 256 60 239 156 223 166 63 L 154 -137 Q 151 -178 113 -175 74 -171 74 -129 L 86 28" fill="#000000"/>
    </g>
    <g id="cid_3" viewBox="-184 -220 184 231">
      <path d="M -85 49 Q -16 203 54 191 122 178 138 25 L 144 -181 105 -183 Q 28 -217 -40 -197 -83 -185 -109 -158 -132 -151 -144 -139 -144 -80 -85 49" fill="#feffbd"/>
      <path d="M 104 -184 L 94 9 Q 83 144 42 151 0 159 -47 46 -83 -41 -104 -143 -111 -182 -150 -178 -188 -175 -184 -136 -178 -83 -147 3 L -97 123 Q -68 187 -20 214 18 235 59 230 95 225 121 202 157 170 164 107 180 -38 184 -179 185 -219 147 -220 109 -221 104 -184" fill="#000000"/>
    </g>
    <g id="cid_5" viewBox="-224 -424 214 424">
      <path d="M 186 -376 Q 128 -453 27 -407 L -63 -346 Q -107 -317 -127 -232 L -162 -20 Q -180 97 -175 210 -169 325 -141 360 -68 450 63 -62 L 171 -180 Q 248 -293 186 -376" fill="#feffbd"/>
      <path d="M -137 -326 Q -182 -231 -206 1 -215 88 -224 258 -227 341 -195 384 -170 418 -129 423 -92 428 -62 408 -27 384 -8 331 41 189 102 -52 113 -98 74 -103 34 -108 24 -72 L -61 240 Q -92 344 -116 344 -162 344 -133 62 -106 -208 -63 -322 -51 -354 -83 -362 -116 -370 -137 -326" fill="#000000"/>
    </g>
    <g id="cid_7" viewBox="-267 -453 200 412">
      <path d="M 74 -327 Q 32 -380 -41 -413 -82 -432 -147 -448 -205 -462 -238 -435 -270 -409 -267 -355 -262 -226 -100 -85 L -54 150 Q 9 382 94 371 182 359 145 31 111 -267 74 -327" fill="#feffbd"/>
      <path d="M 116 99 Q 131 326 87 332 50 337 -9 122 L -61 -95 Q -73 -138 -113 -130 -152 -123 -139 -76 L -99 88 Q -52 265 -23 331 -8 363 16 384 54 420 102 410 181 393 192 295 212 144 181 -65 153 -257 108 -348 89 -388 57 -368 25 -349 40 -306 102 -133 116 99" fill="#000000"/>
    </g>
    <g id="cid_9" viewBox="-519 -401 530 552">
      <path d="M 463 -308 Q 231 -421 -125 -396 -404 -377 -489 -326 -510 -274 -509 -193 -508 -99 -475 -14 -490 113 -471 298 -456 447 -442 482 -440 486 -423 476 -406 467 -401 485 -399 498 -377 513 -349 532 -311 532 -273 532 -250 512 L -231 490 -175 501 -3 511 Q 151 511 228 489 L 259 513 Q 299 535 346 529 394 523 421 484 L 438 447 464 416 Q 482 396 483 378 494 278 481 -28 514 -107 492 -215 L 463 -308" fill="#feffbd"/>
      <path d="M 227 478 Q 217 439 179 449 L 93 467 -4 472 -122 462 -180 451 Q -220 440 -231 478 -242 517 -202 528 L -145 540 -4 552 Q 105 550 199 527 237 517 227 478" fill="#000000"/>
      <path d="M 449 167 Q 451 317 437 441 433 481 473 485 512 490 517 451 L 517 450 Q 540 295 521 -31 519 -72 479 -70 439 -67 441 -26 L 449 167" fill="#000000"/>
      <path d="M -515 234 Q -507 394 -480 496 -469 533 -431 524 -392 515 -402 476 -427 382 -433 209 L -435 -12 Q -433 -51 -473 -53 -513 -55 -515 -16 -523 98 -515 234" fill="#000000"/>
    </g>
    <g id="cid_11" viewBox="-1038 -752 1038 751">
      <path d="M 888 -88 Q 681 -365 565 -475 275 -752 -9 -752 -225 -752 -410 -610 -529 -519 -715 -287 -877 -84 -945 37 -1038 203 -1038 344 -1038 605 -821 704 -608 801 -330 684 -174 618 -86 616 31 612 236 691 427 765 611 747 802 728 913 618 1076 455 1027 214 994 55 888 -88" fill="#000000"/>
      <path d="M -652 -237 Q -809 -41 -876 78 -958 224 -958 344 -958 508 -849 594 -757 666 -616 666 -492 666 -361 611 -269 572 -216 557 -143 536 -74 536 54 536 264 616 406 670 543 670 642 670 723 642 803 614 856 561 1003 415 938 188 902 63 824 -40 631 -285 516 -395 226 -672 -9 -672 -185 -672 -336 -563 -466 -470 -652 -237" fill="#ffaec1"/>
      <path d="M -65 -675 Q -102 -603 -102 -509 -102 -493 -90 -481 -78 -469 -62 -469 -22 -469 -22 -519 -22 -607 29 -674 L -65 -675" fill="#000000"/>
    </g>
    <g id="cid_12" viewBox="-1 0 749 540">
      <path d="M 439 270 Q 439 382 485 461 530 540 594 540 658 540 704 461 749 382 749 270 749 158 704 79 658 0 594 0 530 0 485 79 439 158 439 270" fill="#000000"/>
      <path d="M -1 270 Q -1 382 45 461 90 540 154 540 218 540 264 461 309 382 309 270 309 158 264 79 218 0 154 0 90 0 45 79 -1 158 -1 270" fill="#000000"/>
      <path d="M 592 271 Q 592 326 610 364 627 403 652 403 677 403 694 364 712 326 712 271 712 217 694 179 677 140 652 140 627 140 610 179 592 217 592 271" fill="#ffffff"/>
      <path d="M 162 271 Q 162 326 180 364 197 403 222 403 247 403 264 364 282 326 282 271 282 217 264 179 247 140 222 140 197 140 180 179 162 217 162 271" fill="#ffffff"/>
    </g>
  </defs>
  <defs>
    <g id="cid_2">
      <g id="cid_1_f_1">
        <use transform="matrix(1,0,0,1,0,136)" xlink:href="#cid_1"/>
      </g>
    </g>
  </defs>
  <defs>
    <g id="cid_4">
      <g id="cid_3_f_1">
        <use transform="matrix(1,0,0,1,0,182)" xlink:href="#cid_3"/>
      </g>
    </g>
  </defs>
  <defs>
    <g id="cid_6">
      <g id="cid_5_f_1">
        <use transform="matrix(1,0,0,1,-1155,306)" xlink:href="#cid_5"/>
      </g>
    </g>
  </defs>
  <defs>
    <g id="cid_8">
      <g id="cid_7_f_1">
        <use transform="matrix(1,0,0,1,582,447)" xlink:href="#cid_7"/>
      </g>
    </g>
  </defs>
  <defs>
    <g id="cid_10">
      <g id="cid_9_f_1">
        <use transform="matrix(1,0,0,1,-71,0)" xlink:href="#cid_9"/>
      </g>
    </g>
  </defs>
  <defs>
    <g id="cid_13">
      <g id="cid_12_f_1">
        <use transform="matrix(1,0,0,1,0,0)" xlink:href="#cid_12"/>
      </g>
    </g>
  </defs>
  <defs>
    <g id="cid_14">
      <g id="cid_13_f_1">
        <use transform="matrix(1,0,0,1,0,-560)" xlink:href="#cid_11"/>
        <use transform="matrix(1,0,0,1,-428,-779)" xlink:href="#cid_13"/>
      </g>
    </g>
  </defs>
  <g id="root" transform="scale(0.05)">
    <g id="cid_14_f_1">
      <use transform="matrix(1,0,0,1,2210,3527)" xlink:href="#cid_2"/>
      <use transform="matrix(1,0,0,1,2848,3468)" xlink:href="#cid_4"/>
      <use transform="matrix(1,0,0,1,3144,2827)" xlink:href="#cid_6"/>
      <use transform="matrix(1,0,0,1,2510,2717)" xlink:href="#cid_8"/>
      <use transform="matrix(1,0,0,1,2587,3042)" xlink:href="#cid_10"/>
      <use transform="matrix(1,0,0,1,2500,2705)" xlink:href="#cid_14"/>
    </g>
  </g>
</svg>
